<?xml version="1.0" encoding="utf-8"?>
<!-- Generator: Adobe Illustrator 16.0.0, SVG Export Plug-In . SVG Version: 6.00 Build 0)  -->
<!DOCTYPE svg PUBLIC "-//W3C//DTD SVG 1.1//EN" "http://www.w3.org/Graphics/SVG/1.1/DTD/svg11.dtd">
<svg version="1.1" id="Layer_1" xmlns="http://www.w3.org/2000/svg" xmlns:xlink="http://www.w3.org/1999/xlink" x="0px" y="0px"
	 width="612px" height="792px" viewBox="0 0 612 792" enable-background="new 0 0 612 792" xml:space="preserve">
<polygon fill="#48ADE2" points="224.732,506.635 130.33,367.193 162.625,239.613 252.44,417.297 "/>
<polygon fill="#73CBF3" points="217.366,276.229 130.33,367.193 162.625,239.613 200.672,131 "/>
<polygon fill="#48ADE2" points="217.366,276.229 304.209,303.104 304.059,175.524 200.672,131 "/>
<polygon fill="#73CBF3" points="224.732,506.635 304.409,569 304.368,436.053 252.44,417.297 "/>
<polygon fill="#73CBF3" points="383.885,506.635 478.287,367.193 445.991,239.613 356.177,417.297 "/>
<polygon fill="#48ADE2" points="391.253,276.229 478.287,367.193 445.991,239.613 407.945,131 "/>
<polygon fill="#73CBF3" points="391.253,276.229 304.409,303.104 304.558,175.524 407.945,131 "/>
<polygon fill="#48ADE2" points="383.885,506.635 320.42,542.766 320.46,444.037 356.177,417.297 "/>
</svg>
