<?xml version="1.0" encoding="utf-8"?>
<!-- Generator: Adobe Illustrator 16.0.0, SVG Export Plug-In . SVG Version: 6.00 Build 0)  -->
<!DOCTYPE svg PUBLIC "-//W3C//DTD SVG 1.1//EN" "http://www.w3.org/Graphics/SVG/1.1/DTD/svg11.dtd">
<svg version="1.1" id="Layer_1" xmlns="http://www.w3.org/2000/svg" xmlns:xlink="http://www.w3.org/1999/xlink" x="0px" y="0px"
	 width="612px" height="792px" viewBox="0 0 612 792" enable-background="new 0 0 612 792" xml:space="preserve">
	 <g>
		<polygon fill="#48ADE2" points="224,506 130,367 162,239 252,417 "/>
		<polygon fill="#73CBF3" points="217,276 130,367 162,239 200,131 "/>
		<polygon fill="#48ADE2" points="217,276 304,303 304,175 200,131 "/>
		<polygon fill="#73CBF3" points="224,506 304,569 304,436 252,417 "/>
		<polygon fill="#73CBF3" points="383,506 478,367 445,239 356,417 "/>
		<polygon fill="#48ADE2" points="391,276 478,367 445,239 407,131 "/>
		<polygon fill="#73CBF3" points="391,276 304,303 304,175 407,131 "/>
		<polygon fill="#48ADE2" points="383,506 320,542 320,444 356,417 "/>
	</g>
</svg>
