<?xml version="1.0" encoding="utf-8"?>
<!-- Generator: Adobe Illustrator 16.0.0, SVG Export Plug-In . SVG Version: 6.00 Build 0)  -->
<!DOCTYPE svg PUBLIC "-//W3C//DTD SVG 1.1//EN" "http://www.w3.org/Graphics/SVG/1.1/DTD/svg11.dtd">
<svg version="1.1" id="Layer_1" xmlns="http://www.w3.org/2000/svg" xmlns:xlink="http://www.w3.org/1999/xlink" x="0px" y="0px"
	 width="612px" height="792px" viewBox="0 0 612 792" enable-background="new 0 0 612 792" xml:space="preserve">
<polygon fill="#48ADE2" points="197.024,537.373 126.5,369.5 99.5,261.5 224.732,448.035 "/>
<polygon fill="#73CBF3" points="198.5,261.5 126.5,369.5 99.5,261.5 189.5,162.5 "/>
<polygon fill="#48ADE2" points="198.5,261.5 306.5,261.5 279.5,180.5 189.5,162.5 "/>
<polygon fill="#73CBF3" points="197.024,537.373 288.521,584 288.48,451.053 224.732,448.035 "/>
<polygon fill="#73CBF3" points="396.5,513.5 495.5,432.5 459.5,297.5 378.5,459.5 "/>
<polygon fill="#48ADE2" points="351.5,243.5 495.5,432.5 459.5,297.5 360.5,126.5 "/>
<polygon fill="#73CBF3" points="351.5,243.5 306.5,261.5 279.5,180.5 360.5,126.5 "/>
<polygon fill="#48ADE2" points="396.5,513.5 324.5,531.5 324.5,405.5 378.5,459.5 "/>
</svg>
