<?xml version="1.0" encoding="utf-8"?>
<!-- Generator: Adobe Illustrator 16.0.0, SVG Export Plug-In . SVG Version: 6.00 Build 0)  -->
<!DOCTYPE svg PUBLIC "-//W3C//DTD SVG 1.1//EN" "http://www.w3.org/Graphics/SVG/1.1/DTD/svg11.dtd">
<svg version="1.1" id="Layer_1" xmlns="http://www.w3.org/2000/svg" xmlns:xlink="http://www.w3.org/1999/xlink" x="0px" y="0px"
	 width="612px" height="792px" viewBox="0 0 612 792" enable-background="new 0 0 612 792" xml:space="preserve">
<polygon fill="#48ADE2" points="197.024,537.373 80.292,383.183 112.586,255.604 224.732,448.035 "/>
<polygon fill="#73CBF3" points="205.371,312.228 80.292,383.183 112.586,255.604 188.677,166.999 "/>
<polygon fill="#48ADE2" points="205.371,312.228 294.255,265.104 294.604,137.524 188.677,166.999 "/>
<polygon fill="#73CBF3" points="197.024,537.373 288.521,584 288.48,451.053 224.732,448.035 "/>
<polygon fill="#73CBF3" points="408.295,557.183 510.583,417.297 478.287,289.717 380.587,467.845 "/>
<polygon fill="#48ADE2" points="363.895,260.969 510.583,417.297 478.287,289.717 380.587,115.74 "/>
<polygon fill="#73CBF3" points="363.895,260.969 294.455,265.104 294.604,137.524 380.587,115.74 "/>
<polygon fill="#48ADE2" points="408.295,557.183 320.431,516.018 329.833,405.166 380.587,467.845 "/>
</svg>
